# xmcd
#
# Track frame offsets:
#	150
#	13250
#	23572
#	38215
#	54377
#	66970
#	83672
#	98657
#	115412
#	131510
#	143845
#	156797
#	178097
#	197375
#
# Disc length: 2842 seconds
#
# Revision: 6
# Processed by: cddbd v1.5.2PL0 Copyright (c) Steve Scherf et al.
# Submitted via: dBpowerAMP V4.0
#
DISCID=b30b180e
DTITLE=Chitãozinho and Xororó - Série Bis  CD1
DYEAR=2000
DGENRE=Sertanejo
TTITLE0=Fio De Cabelo
TTITLE1=60 Dias Apaixonado
TTITLE2=Vem Provar De Mim
TTITLE3=Faz Um Ano
TTITLE4=Pago Dobrado
TTITLE5=Fogão De Lenha
TTITLE6=Pé Na Estrada
TTITLE7=Ela Chora, Chora
TTITLE8=Coração Quebrado
TTITLE9=Amante Amada
TTITLE10=Somos Apaixonados
TTITLE11=Falando Às Paredes
TTITLE12=A Mais Bonita Das Noites
TTITLE13=Pés Descalços
EXTD=
EXTT0=
EXTT1=
EXTT2=
EXTT3=
EXTT4=
EXTT5=
EXTT6=
EXTT7=
EXTT8=
EXTT9=
EXTT10=
EXTT11=
EXTT12=
EXTT13=
PLAYORDER=
